<?xml version="1.0" encoding="UTF-8"?>
<svg id="Layer_1" data-name="Layer 1" xmlns="http://www.w3.org/2000/svg" viewBox="0 0 3555.7 848.05">
  <defs>
    <style>
      .cls-1 {
        fill: #474aaf;
      }

      .cls-1, .cls-2, .cls-3, .cls-4, .cls-5, .cls-6, .cls-7, .cls-8 {
        stroke-width: 0px;
      }

      .cls-2 {
        fill: #130654;
      }

      .cls-3 {
        fill: #827b00;
      }

      .cls-4 {
        fill: #1b1464;
      }

      .cls-5 {
        fill: #383ca7;
      }

      .cls-6 {
        fill: #221b73;
      }

      .cls-7 {
        fill: #2e3192;
      }

      .cls-8 {
        fill: #fff799;
      }
    </style>
  </defs>
  <g>
    <polygon class="cls-7" points="534.13 616.76 0 308.38 534.13 0 1034.88 289.11 1068.26 308.38 534.13 616.76"/>
    <polygon class="cls-1" points="1068.26 385.48 534.13 693.86 534.13 616.76 1068.26 308.38 1068.26 385.48"/>
    <polygon class="cls-6" points="0 385.48 534.13 693.86 534.13 616.76 0 308.38 0 385.48"/>
    <polygon class="cls-2" points="166.92 558.94 166.92 481.85 534.13 693.86 534.13 770.95 166.92 558.94"/>
    <polygon class="cls-3" points="166.92 636.04 166.92 558.94 534.13 770.95 534.13 848.05 166.92 636.04"/>
    <polygon class="cls-6" points="901.62 558.94 901.62 481.85 534.4 693.86 534.4 770.95 901.62 558.94"/>
    <polygon class="cls-8" points="901.62 636.04 901.62 558.94 534.4 770.95 534.4 848.05 901.62 636.04"/>
    <polygon class="cls-5" points="400.6 232.57 534.13 309.67 667.67 232.57 534.13 155.48 400.6 232.57"/>
    <polygon class="cls-1" points="567.52 367.49 567.52 328.94 634.28 290.39 634.28 328.94 667.67 309.67 667.67 232.57 534.13 309.67 534.13 386.76 567.52 367.49"/>
    <polygon class="cls-4" points="400.6 309.67 534.13 386.76 534.13 309.67 400.6 232.57 400.6 309.67"/>
    <polygon class="cls-4" points="767.82 444.58 567.52 328.94 567.52 367.49 767.82 483.13 834.58 521.68 834.58 483.13 767.82 444.58"/>
    <polygon class="cls-1" points="901.35 444.58 901.35 483.13 834.58 521.68 834.58 483.13 901.35 444.58"/>
    <polygon class="cls-5" points="567.52 328.94 634.28 290.39 901.35 444.58 834.58 483.13 567.52 328.94"/>
    <polygon class="cls-5" points="834.58 752.96 901.35 714.42 901.35 483.13 834.58 521.68 834.58 752.96"/>
    <polygon class="cls-4" points="767.82 714.42 834.58 752.96 834.58 521.68 767.82 483.13 767.82 714.42"/>
    <polygon class="cls-3" points="767.82 791.51 834.58 830.06 834.58 752.96 767.82 714.42 767.82 791.51"/>
    <polygon class="cls-8" points="901.35 791.51 834.58 830.06 834.58 752.96 901.35 714.42 901.35 791.51"/>
  </g>
  <g>
    <path class="cls-6" d="m1604.51,540.38c0,60.96-15.96,106.92-47.88,137.88-31.93,30.96-78.12,46.44-138.6,46.44s-106.68-15.59-138.6-46.8c-31.93-31.2-47.88-77.04-47.88-137.52V242.3h57.6v283.68c0,49.93,10.44,86.52,31.32,109.8,20.88,23.29,53.39,34.92,97.56,34.92s76.68-11.63,97.56-34.92c20.88-23.28,31.32-59.87,31.32-109.8V242.3h57.6v298.08Z"/>
    <path class="cls-6" d="m1958.03,385.58c26.39,23.52,39.6,57.36,39.6,101.52v230.4h-57.6v-210.24c0-37.44-8.04-64.55-24.12-81.36-16.09-16.8-37.56-25.2-64.44-25.2-19.2,0-37.2,4.21-54,12.6-16.81,8.4-30.6,22.08-41.4,41.04-10.8,18.97-16.2,42.84-16.2,71.64v191.52h-57.6v-360h50.4l3.6,56.16c11.99-21.6,28.55-37.55,49.68-47.88,21.12-10.32,44.88-15.48,71.28-15.48,40.79,0,74.4,11.77,100.8,35.28Z"/>
    <path class="cls-6" d="m2071.42,276.5c-7.92-7.92-11.88-18.36-11.88-31.32s3.96-23.4,11.88-31.32c7.92-7.92,18.36-11.88,31.32-11.88s23.4,3.96,31.32,11.88,11.88,18.36,11.88,31.32-3.96,23.4-11.88,31.32-18.36,11.88-31.32,11.88-23.4-3.96-31.32-11.88Zm60.12,441h-57.6v-360h57.6v360Z"/>
    <path class="cls-6" d="m2451.58,375.14c24.72,16.56,44.03,40.21,57.96,70.92l-54.72,25.92c-15.37-47.52-47.28-71.28-95.76-71.28-36,0-64.2,12.13-84.6,36.36-20.41,24.24-30.6,57.72-30.6,100.44s10.19,76.21,30.6,100.44c20.4,24.24,48.6,36.36,84.6,36.36,27.83,0,50.28-6.36,67.32-19.08,17.03-12.71,28.19-31.07,33.48-55.08l53.28,18.72c-12.49,33.6-31.68,59.65-57.6,78.12-25.92,18.48-57.6,27.72-95.04,27.72-34.09,0-64.2-7.56-90.36-22.68-26.17-15.12-46.69-36.83-61.56-65.16-14.88-28.32-22.32-61.44-22.32-99.36s7.44-71.03,22.32-99.36c14.87-28.32,35.39-50.04,61.56-65.16,26.16-15.12,56.27-22.68,90.36-22.68,36,0,66.35,8.28,91.08,24.84Z"/>
    <path class="cls-6" d="m2560.66,357.5h46.8l7.92,59.04c20.16-44.16,58.56-66.24,115.2-66.24,17.28,0,30.48,2.41,39.6,7.2l-10.08,52.56c-11.52-3.84-26.17-5.76-43.92-5.76-15.84,0-31.32,4.44-46.44,13.32-15.12,8.89-27.48,22.32-37.08,40.32-9.61,18-14.4,39.72-14.4,65.16v194.4h-57.6v-360Z"/>
    <path class="cls-6" d="m3112.17,669.98l-2.88,45.36c-9.61,4.79-22.08,7.2-37.44,7.2-18.25,0-33.73-4.44-46.44-13.32-12.72-8.88-20.77-21.96-24.12-39.24-12,17.76-28.56,31.32-49.68,40.68-21.13,9.36-42.96,14.04-65.52,14.04-34.09,0-62.4-8.52-84.96-25.56-22.57-17.03-33.84-41.15-33.84-72.36,0-26.88,8.88-48.96,26.64-66.24,17.75-17.28,42.95-29.27,75.6-36l131.04-25.92v-13.68c0-26.88-7.2-47.63-21.6-62.28-14.4-14.64-34.81-21.96-61.2-21.96-52.32,0-86.16,22.8-101.52,68.4l-46.8-28.8c10.08-27.83,28.08-49.79,54-65.88,25.92-16.08,57.84-24.12,95.76-24.12,41.28,0,74.76,10.44,100.44,31.32,25.67,20.88,38.52,51.48,38.52,91.8v174.24c0,17.28,9.11,25.92,27.36,25.92,9.11,0,18-1.19,26.64-3.6Zm-142.56-18.72c20.63-15.36,30.96-37.68,30.96-66.96v-38.16l-104.4,21.6c-24.48,5.29-42.24,12.13-53.28,20.52-11.05,8.4-16.56,20.28-16.56,35.64s6,27,18,36.36c11.99,9.36,28.55,14.04,49.68,14.04,29.76,0,54.96-7.67,75.6-23.04Z"/>
    <path class="cls-6" d="m3225.94,357.5h120.24v49.68h-120.24v310.32h-57.6v-310.32h-72v-49.68h72v-60.48c0-33.12,10.08-59.51,30.24-79.2,20.16-19.68,49.43-29.52,87.84-29.52,12.96,0,24.84,1.44,35.64,4.32s19.32,6.96,25.56,12.24l-15.12,46.8c-11.52-7.2-25.2-10.8-41.04-10.8-43.68,0-65.52,20.64-65.52,61.92v54.72Z"/>
    <path class="cls-6" d="m3555.7,692.3c-24.01,21.6-54.48,32.4-91.44,32.4-30.24,0-54.97-7.8-74.16-23.4-19.2-15.59-29.05-39.96-29.52-73.08v-221.04h-72v-49.68h72v-86.4l57.6-15.84v102.24h131.04v49.68h-131.04v210.96c0,17.28,4.92,30.36,14.76,39.24,9.83,8.89,22.92,13.32,39.24,13.32,13.43,0,25.2-2.27,35.28-6.84,10.08-4.56,19.44-11.16,28.08-19.8l20.16,48.24Z"/>
  </g>
</svg>